<svg width="30" height="36" viewBox="0 0 30 36" fill="none" xmlns="http://www.w3.org/2000/svg">
<g id="grao 1" clip-path="url(#clip0_59_11)">
<g id="Group">
<path id="Vector" fill-rule="evenodd" clip-rule="evenodd" d="M9.01069 33.8916C9.84179 34.2973 10.7084 34.5412 11.5809 34.6536C10.978 33.9659 10.4116 33.1988 9.84776 32.3008C8.66463 30.1798 8.24181 28.4642 8.15194 26.2061C8.17531 21.8974 9.58263 18.6608 11.489 15.152C13.3054 11.976 15.2865 9.23595 17.4654 6.33863C18.1146 5.3419 18.8967 4.35705 19.5668 3.35255C19.7476 3.08185 19.8791 2.76985 20.033 2.48625C20.1176 2.26323 20.0878 2.33007 20.1666 2.57741C20.294 2.6231 20.1307 2.31107 19.8509 1.82126C14.014 -0.635911 6.96533 4.17646 3.93039 12.7809C0.825491 21.5915 3.10018 31.0375 9.01069 33.8916ZM12.0614 34.6948C11.4364 33.9174 10.9023 33.065 10.4065 32.047C9.48478 30.0034 9.23845 28.4227 9.3744 26.3657C9.89432 22.43 11.5705 19.602 13.7126 16.5559C15.9332 13.8679 18.0042 11.0198 20.5409 8.61506C21.4158 7.60614 22.2985 6.59287 23.1031 5.52398C23.1679 5.4177 23.3925 5.05846 23.5818 4.72544C26.9048 8.92956 27.769 16.2174 25.3407 23.1083C22.7487 30.4478 17.2447 35.0226 12.0614 34.6948Z" fill="#C95E20"/>
</g>
</g>
<defs>
<clipPath id="clip0_59_11">
<rect width="25.1124" height="32.8393" fill="white" transform="translate(0 3.34821) rotate(-7.66204)"/>
</clipPath>
</defs>
</svg>
